<?xml version="1.0" encoding="UTF-8"?>
<svg width="22px" height="20px" viewBox="0 0 22 20" version="1.1" xmlns="http://www.w3.org/2000/svg" xmlns:xlink="http://www.w3.org/1999/xlink">
    <!-- Generator: Sketch 47.1 (45422) - http://www.bohemiancoding.com/sketch -->
    <title>Icon /  Editor / Video</title>
    <desc>Created with Sketch.</desc>
    <defs></defs>
    <g id="Icon-图标" stroke="none" stroke-width="1" fill="none" fill-rule="evenodd">
        <g id="Artboard" transform="translate(-184.000000, -451.000000)" fill="#9A9A9A">
            <path d="M185.5,454 L197.5,454 C198.328427,454 199,454.671573 199,455.5 L199,466.444378 C199,467.272805 198.328427,467.944378 197.5,467.944378 L185.5,467.944378 L185.5,467.944378 C184.671573,467.944378 184,467.272805 184,466.444378 L184,455.5 L184,455.5 C184,454.671573 184.671573,454 185.5,454 L185.5,454 Z M185,455 L185,467 L198,467 L198,455 L185,455 Z M201,463.459706 L201,457.459706 L204.375305,454.759462 C204.806567,454.414452 205.435859,454.484374 205.780869,454.915636 C205.922719,455.092949 206,455.313259 206,455.540331 L206,465.379081 C206,465.931366 205.552285,466.379081 205,466.379081 C204.772929,466.379081 204.552618,466.3018 204.375305,466.15995 L201,463.459706 Z M202,463.316849 L205,465.459706 L205,455.459706 L202,457.602563 L202,463.316849 Z" id="Icon-/--Editor-/-Video-Copy"></path>
        </g>
    </g>
</svg>