<?xml version="1.0" encoding="UTF-8"?>
<svg width="22px" height="20px" viewBox="0 0 22 20" version="1.1" xmlns="http://www.w3.org/2000/svg" xmlns:xlink="http://www.w3.org/1999/xlink">
    <!-- Generator: Sketch 47.1 (45422) - http://www.bohemiancoding.com/sketch -->
    <title>Icon /  Editor / Voice</title>
    <desc>Created with Sketch.</desc>
    <defs></defs>
    <g id="Icon-图标" stroke="none" stroke-width="1" fill="none" fill-rule="evenodd">
        <g id="Artboard" transform="translate(-162.000000, -451.000000)" fill="#9A9A9A">
            <g id="Icon-/--Editor-/-Voice-Copy" transform="translate(164.000000, 452.000000)">
                <path d="M18,9 C18,13.9705627 13.9705627,18 9,18 C4.02943725,18 0,13.9705627 0,9 C0,4.02943725 4.02943725,0 9,0 C13.9705627,0 18,4.02943725 18,9 Z M1,9 C1,13.418278 4.581722,17 9,17 C13.418278,17 17,13.418278 17,9 C17,4.581722 13.418278,1 9,1 C4.581722,1 1,4.581722 1,9 Z" id="Fill-29" fill-rule="nonzero"></path>
                <path d="M9.90832646,13.9776725 L9.05142767,13.1207737 C10.1283249,12.0808972 10.8,10.6096879 10.8,8.97863516 C10.8,7.39074288 10.1634019,5.95434645 9.13606109,4.91994835 L9.99257858,4.06343086 C11.2323874,5.31849123 12,7.05722604 12,8.97863516 C12,10.9432004 11.197518,12.7167933 9.90832646,13.9776725 Z M7.90846241,11.9778085 L7.05044712,11.1197932 C7.63268614,10.5969989 8,9.8315232 8,8.97863516 C8,8.16894635 7.66895309,7.43803916 7.1372453,6.91876414 L7.99396079,6.06204865 C8.73804615,6.80216213 9.2,7.8354314 9.2,8.97863516 C9.2,10.1650119 8.70249602,11.2329941 7.90846241,11.9778085 Z M6.04596942,10.1153155 C6.38261704,9.85480284 6.6,9.4425851 6.6,8.97863516 C6.6,8.558037 6.42134383,8.17995493 6.13713511,7.91887434 L4.99333168,9.06267776 L6.04596942,10.1153155 Z" id="Fill-23"></path>
            </g>
        </g>
    </g>
</svg>